<svg xmlns="http://www.w3.org/2000/svg" viewBox="0 0 24 24">
  <path fill="#9aa0a6" d="M12 .5C5.65.5.5 5.65.5 12c0 5.08 3.29 9.39 7.86 10.91.58.1.79-.25.79-.56 0-.28-.01-1.02-.02-2-3.2.7-3.88-1.4-3.88-1.4-.53-1.36-1.3-1.72-1.3-1.72-1.06-.73.08-.72.08-.72 1.17.08 1.78 1.2 1.78 1.2 1.04 1.78 2.73 1.27 3.4.97.11-.75.41-1.27.74-1.56-2.56-.29-5.25-1.28-5.25-5.69 0-1.26.45-2.29 1.19-3.1-.12-.29-.52-1.46.11-3.05 0 0 .97-.31 3.18 1.19.92-.26 1.9-.39 2.88-.39.98 0 1.96.13 2.88.39 2.21-1.5 3.18-1.19 3.18-1.19.63 1.59.23 2.76.11 3.05.74.81 1.19 1.84 1.19 3.1 0 4.42-2.7 5.39-5.27 5.67.42.37.8 1.1.8 2.22 0 1.6-.01 2.9-.01 3.29 0 .31.21.67.8.56C20.71 21.39 24 17.08 24 12 24 5.65 18.35.5 12 .5z"/>
</svg>
